<?xml version="1.0" standalone="no"?>
<!DOCTYPE svg PUBLIC "-//W3C//DTD SVG 20010904//EN"
 "http://www.w3.org/TR/2001/REC-SVG-20010904/DTD/svg10.dtd">
<svg version="1.0" xmlns="http://www.w3.org/2000/svg"
 width="400.000000pt" height="400.000000pt" viewBox="0 0 400.000000 400.000000"
 preserveAspectRatio="xMidYMid meet">
<metadata>
Created by potrace 1.14, written by Peter Selinger 2001-2017
</metadata>
<g transform="translate(0.000000,400.000000) scale(0.100000,-0.100000)"
fill="#000000" stroke="none">
<path d="M0 2000 l0 -2000 2000 0 2000 0 0 2000 0 2000 -2000 0 -2000 0 0
-2000z m2288 1460 c99 -13 230 -55 332 -106 64 -33 99 -54 189 -119 18 -12
170 -166 191 -192 108 -135 198 -350 220 -526 12 -100 13 -257 1 -276 -13 -21
-71 4 -71 31 0 54 -65 145 -137 189 -24 15 -34 30 -39 57 -18 106 -81 251
-148 341 -23 29 -50 66 -61 82 -20 28 -28 35 -126 113 -71 57 -224 129 -314
149 -143 32 -213 39 -263 29 -26 -6 -70 -13 -99 -17 -109 -12 -273 -82 -373
-160 -199 -156 -315 -359 -340 -600 -34 -328 114 -638 390 -815 152 -98 260
-131 451 -137 137 -5 153 -3 238 21 86 25 185 68 258 111 28 17 36 18 70 6 71
-24 184 -82 190 -97 6 -16 -52 -73 -74 -74 -7 0 -13 -5 -13 -10 0 -6 -8 -13
-17 -17 -10 -3 -31 -16 -48 -27 -32 -24 -108 -61 -193 -96 -124 -50 -343 -78
-485 -62 -125 15 -219 36 -297 66 -59 23 -86 36 -209 104 -22 12 -56 35 -74
52 l-33 29 -99 -99 -99 -100 27 -28 c15 -15 27 -32 27 -36 0 -16 -716 -716
-733 -716 -22 0 -267 239 -267 261 0 18 703 712 727 717 8 2 28 -9 44 -24 l29
-27 95 93 c52 52 95 98 95 103 0 6 -16 29 -35 53 -19 23 -35 47 -35 53 0 6 -4
11 -10 11 -5 0 -10 5 -10 10 0 6 -10 27 -23 48 -81 130 -136 342 -136 527 -1
189 30 326 110 493 36 74 57 109 117 191 34 47 176 191 188 191 7 0 14 3 16 8
13 30 222 146 308 171 25 7 52 17 61 21 16 8 106 27 164 33 67 8 246 6 323 -3z
m-133 -425 l0 -70 -60 -6 c-83 -9 -138 -25 -220 -62 -84 -38 -79 -35 -171
-121 -62 -58 -82 -85 -118 -160 -54 -113 -57 -123 -65 -216 l-6 -75 -72 -3
-73 -3 0 48 c0 62 19 175 31 188 5 5 9 17 9 26 0 9 20 57 44 105 74 147 232
298 368 350 24 10 48 21 53 25 6 4 39 13 75 19 36 7 76 16 90 21 14 4 45 7 70
6 l45 -2 0 -70z m678 -589 c18 -8 39 -17 47 -20 36 -16 65 -37 116 -85 48 -46
54 -56 54 -93 0 -45 8 -54 80 -90 25 -13 47 -25 50 -28 3 -3 25 -14 50 -25 25
-11 47 -22 50 -25 3 -4 19 -12 37 -19 26 -11 42 -11 83 -1 81 19 150 0 253
-72 39 -28 87 -115 87 -160 0 -44 -29 -198 -40 -213 -4 -5 -11 -25 -15 -44 -4
-19 -16 -50 -26 -68 -11 -19 -19 -39 -19 -45 0 -20 -80 -178 -90 -178 -6 0
-10 -8 -10 -17 0 -20 -10 -37 -61 -114 -67 -100 -142 -149 -229 -149 -61 0
-115 26 -134 65 -45 91 -46 100 -46 272 -1 185 -4 197 -60 237 -40 28 -252
136 -267 136 -6 0 -16 6 -22 13 -6 8 -44 22 -86 32 -70 18 -77 18 -110 2 -19
-9 -35 -21 -35 -27 0 -5 -6 -10 -14 -10 -8 0 -29 -12 -47 -27 -31 -26 -39 -28
-123 -28 -88 0 -92 1 -121 30 -29 29 -30 33 -30 124 0 67 4 96 13 99 6 2 12 9
12 16 0 14 29 77 39 86 3 3 13 17 21 31 44 77 81 123 174 214 56 55 122 110
146 123 25 12 52 27 60 31 72 41 158 52 213 27z"/>
<path d="M2622 2298 c-16 -16 -15 -28 5 -50 16 -18 16 -21 1 -49 -16 -27 -16
-29 2 -39 13 -7 26 -6 47 5 35 19 41 18 77 0 27 -14 31 -14 53 6 l23 22 -30
19 c-33 20 -36 29 -17 58 19 31 -9 44 -41 19 -31 -24 -53 -24 -82 1 -27 24
-23 23 -38 8z"/>
<path d="M3434 1926 c-12 -32 1 -51 37 -54 46 -4 66 17 47 47 -15 25 -75 29
-84 7z"/>
<path d="M3281 1911 c-21 -13 -7 -38 25 -44 33 -6 54 1 54 17 0 30 -48 47 -79
27z"/>
<path d="M3460 1791 c0 -10 7 -22 16 -25 25 -10 72 -7 79 5 10 16 -26 38 -62
39 -26 0 -33 -4 -33 -19z"/>
<path d="M3297 1789 c-18 -10 -18 -12 -1 -30 10 -11 30 -19 51 -19 29 0 33 3
33 25 0 14 -6 25 -12 25 -7 0 -22 2 -33 5 -11 3 -28 0 -38 -6z"/>
</g>
</svg>
